<svg width="13" height="13" viewBox="0 0 13 13" fill="none" xmlns="http://www.w3.org/2000/svg">
<path fill-rule="evenodd" clip-rule="evenodd" d="M6.5 13C10.0898 13 13 10.0898 13 6.5C13 6.35648 12.9953 6.21413 12.9862 6.07295C10.8235 9.6356 5.71805 11.3079 2.80855 11.8508C3.85705 12.5755 5.12895 13 6.5 13ZM1.10415 10.1254C0.406926 9.08973 0 7.84238 0 6.5C0 2.91015 2.91015 0 6.5 0C9.52562 0 12.0684 2.0672 12.793 4.86626C12.208 5.89907 11.3259 6.74771 10.2883 7.43886V3.42945C10.2883 3.16516 10.0741 2.95092 9.8098 2.95092H8.69323C8.42894 2.95092 8.2147 3.16516 8.2147 3.42945V8.50167C8.2147 8.51721 8.21548 8.53248 8.21684 8.54756C7.97927 8.64994 7.7389 8.74653 7.4969 8.83759V4.78527C7.4969 4.52099 7.28266 4.30675 7.01837 4.30675H5.90187C5.63758 4.30675 5.42334 4.52099 5.42334 4.78527V9.4848C5.18192 9.54616 4.94226 9.60258 4.70552 9.65432V6.14113C4.70552 5.87684 4.49128 5.66261 4.227 5.66261H3.11043C2.84615 5.66261 2.6319 5.87684 2.6319 6.14113V10.0062C2.06639 10.0742 1.54926 10.1124 1.10415 10.1254Z" fill="#44C0F1"/>
</svg>
