<svg width="43" height="42" viewBox="0 0 43 42" fill="none" xmlns="http://www.w3.org/2000/svg">
<rect x="41.1602" y="1" width="40" height="40" rx="14.6665" transform="rotate(90 41.1602 1)" fill="#475355" stroke="#252C2D" stroke-width="2"/>
<path d="M27.2183 26.2718C27.0713 27.0128 26.9186 27.7528 26.7792 28.4958C26.7197 28.8125 26.5909 29.0996 26.4478 29.3788C26.1624 29.9353 25.6263 30.1218 24.9297 29.9225C24.2764 29.735 23.7422 29.3147 23.1849 28.9486C22.3788 28.4198 21.5881 27.8633 20.8127 27.2881C20.0883 26.7503 19.3562 26.2244 18.5933 25.7469C18.4194 25.5969 18.2378 25.4568 18.0745 25.2969C17.5662 24.7987 17.5355 24.3695 17.9774 23.813C18.3416 23.3542 18.7739 22.9625 19.19 22.5559C20.6484 21.1322 22.1473 19.7528 23.5558 18.2767C23.7153 18.11 23.8633 17.9324 24.0093 17.7538C24.1044 17.6383 24.1034 17.5012 24.0333 17.3739C23.9536 17.2299 23.8142 17.2437 23.6826 17.2614C23.5356 17.2821 23.4194 17.3759 23.2993 17.4548C20.8569 19.0552 18.4675 20.7365 16.0607 22.3931C15.8916 22.5096 15.7205 22.623 15.5495 22.7365C14.7405 23.2713 13.8758 23.4114 12.9381 23.1637C11.8716 22.8825 10.8186 22.5579 9.78094 22.183C9.70216 22.1544 9.62625 22.1169 9.55035 22.0804C8.85186 21.739 8.81438 21.2407 9.46004 20.7918C9.64739 20.6615 9.84916 20.5461 10.0567 20.4553C15.1104 18.2215 20.1315 15.9107 25.2506 13.8357C25.9847 13.5387 26.7149 13.2229 27.4912 13.0592C28.6019 12.8253 29.1092 13.2851 28.9804 14.4326C28.8296 15.7755 28.6643 17.1174 28.4606 18.4523C28.0629 21.0611 27.6344 23.666 27.2183 26.2718Z" fill="white"/>
</svg>
